# xmcd
#
# Track frame offsets: 
#        150
#        14290
#        26382
#        47990
#        64520
#        80757
#        100756
#        118825
#        135257
#        150686
#        168713
#        186246
#        210013
#        224578
#        247119
#        264666
#        280297
#        299342
#        315106
#
# Disc length: 4439 seconds
#
# Revision: 0
# Processed by: cddbd v1.5.2PL0 Copyright (c) Steve Scherf et al.
# Submitted via: ExactAudioCopy v1.0b3
#
DISCID=11115513
DTITLE=Jimmy Buffett - Boats Beaches Bars and Ballads CD 4 - Ballads
DYEAR=1992
DGENRE=Pop/Rock
TTITLE0=Come Monday
TTITLE1=Defying Gravity
TTITLE2=Survive
TTITLE3=Incommunicado
TTITLE4=I Heard I Was In Town
TTITLE5=Ballad Of Spider John
TTITLE6=Little Miss Magic
TTITLE7=California Promises
TTITLE8=If The Phone Doesn't Ring It's Me
TTITLE9=African Friend
TTITLE10=Everlasting Moon
TTITLE11=Pre-You
TTITLE12=Middle Of The Night
TTITLE13=Coast Of The Marseilles
TTITLE14=Island
TTITLE15=He Went To Paris
TTITLE16=Stars Fell On Alabama
TTITLE17=Changing Channels
TTITLE18=Twelve Volt Man
EXTD=
EXTT0=
EXTT1=
EXTT2=
EXTT3=
EXTT4=
EXTT5=
EXTT6=
EXTT7=
EXTT8=
EXTT9=
EXTT10=
EXTT11=
EXTT12=
EXTT13=
EXTT14=
EXTT15=
EXTT16=
EXTT17=
EXTT18=
PLAYORDER=
